<svg width="80" height="90" viewBox="0 0 80 90" fill="none" xmlns="http://www.w3.org/2000/svg">
<g clip-path="url(#clip0_918_5885)">
<g clip-path="url(#clip1_918_5885)">
<path d="M30.5992 21.6016C35.5612 21.6016 39.5992 25.6384 39.5992 30.6016V43.2016C39.5992 48.1648 35.5624 52.2016 30.5992 52.2016C28.5748 52.2016 26.704 51.5296 25.1992 50.3968V23.4064C26.704 22.2736 28.5748 21.6016 30.5992 21.6016Z" fill="white"/>
<path d="M3.59961 12.6016C3.59961 7.63836 7.63641 3.60156 12.5996 3.60156C17.5628 3.60156 21.5996 7.63836 21.5996 12.6016V55.8016C21.5996 60.7648 17.5628 64.8016 12.5996 64.8016C10.196 64.8016 7.93521 63.8656 6.23601 62.1652C4.53561 60.4648 3.59961 58.2052 3.59961 55.8016V12.6016Z" fill="white"/>
<path d="M12.5996 79.2004C7.63641 79.2004 3.59961 75.1636 3.59961 70.2004C3.59961 68.5636 4.04121 67.0288 4.80921 65.7052C7.02201 67.4524 9.73761 68.4004 12.5996 68.4004C15.4616 68.4004 18.242 67.39 20.3864 65.6992C21.1556 67.024 21.5996 68.5612 21.5996 70.2004C21.5996 75.1636 17.5628 79.2004 12.5996 79.2004Z" fill="white"/>
<path d="M30.5995 66.6028C27.5119 66.6028 24.7843 65.0392 23.1631 62.662C24.4495 60.6868 25.1995 58.33 25.1995 55.8028V54.5812C26.8375 55.3624 28.6675 55.8028 30.5995 55.8028C33.5359 55.8028 36.2419 54.7924 38.3863 53.1016C39.1555 54.4264 39.5995 55.9636 39.5995 57.6028C39.5995 62.566 35.5627 66.6028 30.5995 66.6028Z" fill="white"/>
<path d="M48.5996 86.402C43.6364 86.402 39.5996 82.3652 39.5996 77.402C39.5996 75.7616 40.0436 74.2244 40.814 72.8984C42.9584 74.5892 45.6632 75.602 48.5996 75.602C51.536 75.602 54.2408 74.5904 56.3852 72.8984C57.1556 74.2232 57.5996 75.7616 57.5996 77.402C57.5996 82.3652 53.5628 86.402 48.5996 86.402Z" fill="white"/>
<path d="M57.6001 63.0016C57.6001 67.9648 53.5633 72.0016 48.6001 72.0016C44.6485 72.0016 41.2873 69.4408 40.0801 65.8912C42.0217 63.6736 43.2001 60.7732 43.2001 57.6016C43.2001 54.9268 42.3613 52.444 40.9345 50.4016C42.3613 48.3592 43.2001 45.8764 43.2001 43.2016V32.4064C44.7049 31.2736 46.5757 30.6016 48.6001 30.6016C53.5621 30.6016 57.6001 34.6384 57.6001 39.6016V63.0016Z" fill="white"/>
<path d="M66.5995 73.802C63.5119 73.802 60.7843 72.2384 59.1631 69.8612C60.4495 67.886 61.1995 65.5292 61.1995 63.002V61.7888C62.8651 62.582 64.6999 63.002 66.5995 63.002C69.5359 63.002 72.2419 61.9916 74.3863 60.3008C75.1555 61.6256 75.5995 63.1628 75.5995 64.802C75.5995 69.7652 71.5615 73.802 66.5995 73.802Z" fill="white"/>
<path d="M75.5996 50.4016C75.5996 55.3648 71.5628 59.4016 66.5996 59.4016C64.6256 59.4016 62.7488 58.7692 61.1996 57.6016V39.6016C61.1996 36.1768 59.8256 33.0664 57.5996 30.7936V21.6016C57.5996 16.6384 61.6364 12.6016 66.5996 12.6016C71.5628 12.6016 75.5996 16.6384 75.5996 21.6016V50.4016Z" fill="white"/>
<path d="M79.2 21.6C79.2 14.652 73.548 9 66.6 9C59.652 9 54 14.652 54 21.6V28.218C52.362 27.438 50.5308 27 48.6 27C46.6692 27 44.682 27.4752 42.9924 28.3188C41.916 22.4568 36.7692 18 30.6 18C28.668 18 26.838 18.4392 25.2 19.2204V12.6C25.2 5.652 19.548 0 12.6 0C5.652 0 0 5.652 0 12.6V55.8C0 58.4148 0.792 60.9084 2.2608 63.0072C0.8364 65.0484 0 67.5276 0 70.2C0 77.148 5.652 82.8 12.6 82.8C19.548 82.8 25.2 77.148 25.2 70.2C25.2 69.7788 25.1796 69.3624 25.1388 68.952C26.7924 69.7512 28.644 70.2 30.6 70.2C33.0144 70.2 35.2716 69.5172 37.1892 68.3352C37.4964 68.9892 37.8552 69.6132 38.2656 70.2C36.8376 72.2424 35.9988 74.7252 35.9988 77.4C35.9988 84.348 41.6508 90 48.5988 90C55.5468 90 61.1988 84.348 61.1988 77.4C61.1988 76.9788 61.1784 76.5624 61.1376 76.152C62.7912 76.9512 64.6428 77.4 66.5988 77.4C73.5468 77.4 79.1988 71.748 79.1988 64.8C79.1988 62.1252 78.36 59.6424 76.9332 57.6C78.3612 55.5576 79.1988 53.0748 79.1988 50.4V21.6H79.2ZM30.6 21.6C35.562 21.6 39.6 25.6368 39.6 30.6V43.2C39.6 48.1632 35.5632 52.2 30.6 52.2C28.5756 52.2 26.7048 51.528 25.2 50.3952V23.4048C26.7048 22.272 28.5756 21.6 30.6 21.6ZM3.6 12.6C3.6 7.6368 7.6368 3.6 12.6 3.6C17.5632 3.6 21.6 7.6368 21.6 12.6V55.8C21.6 60.7632 17.5632 64.8 12.6 64.8C10.1964 64.8 7.9356 63.864 6.2364 62.1636C4.536 60.4632 3.6 58.2036 3.6 55.8V12.6ZM12.6 79.2C7.6368 79.2 3.6 75.1632 3.6 70.2C3.6 68.5632 4.0416 67.0284 4.8096 65.7048C7.0224 67.452 9.738 68.4 12.6 68.4C15.462 68.4 18.2424 67.3896 20.3868 65.6988C21.156 67.0236 21.6 68.5608 21.6 70.2C21.6 75.1632 17.5632 79.2 12.6 79.2ZM30.6 66.6C27.5124 66.6 24.7848 65.0364 23.1636 62.6592C24.45 60.684 25.2 58.3272 25.2 55.8V54.5784C26.838 55.3596 28.668 55.8 30.6 55.8C33.5364 55.8 36.2424 54.7896 38.3868 53.0988C39.156 54.4236 39.6 55.9608 39.6 57.6C39.6 62.5632 35.5632 66.6 30.6 66.6ZM48.6 86.4C43.6368 86.4 39.6 82.3632 39.6 77.4C39.6 75.7596 40.044 74.2224 40.8144 72.8964C42.9588 74.5872 45.6636 75.6 48.6 75.6C51.5364 75.6 54.2412 74.5884 56.3856 72.8964C57.156 74.2212 57.6 75.7596 57.6 77.4C57.6 82.3632 53.5632 86.4 48.6 86.4ZM57.6 63C57.6 67.9632 53.5632 72 48.6 72C44.6484 72 41.2872 69.4392 40.08 65.8896C42.0216 63.672 43.2 60.7716 43.2 57.6C43.2 54.9252 42.3612 52.4424 40.9344 50.4C42.3612 48.3576 43.2 45.8748 43.2 43.2V32.4048C44.7048 31.272 46.5756 30.6 48.6 30.6C53.562 30.6 57.6 34.6368 57.6 39.6V63ZM66.6 73.8C63.5124 73.8 60.7848 72.2364 59.1636 69.8592C60.45 67.884 61.2 65.5272 61.2 63V61.7868C62.8656 62.58 64.7004 63 66.6 63C69.5364 63 72.2424 61.9896 74.3868 60.2988C75.156 61.6236 75.6 63.1608 75.6 64.8C75.6 69.7632 71.562 73.8 66.6 73.8ZM75.6 50.4C75.6 55.3632 71.5632 59.4 66.6 59.4C64.626 59.4 62.7492 58.7676 61.2 57.6V39.6C61.2 36.1752 59.826 33.0648 57.6 30.792V21.6C57.6 16.6368 61.6368 12.6 66.6 12.6C71.5632 12.6 75.6 16.6368 75.6 21.6V50.4Z" fill="black"/>
</g>
</g>
<defs>
<clipPath id="clip0_918_5885">
<rect width="79.2" height="90" fill="white"/>
</clipPath>
<clipPath id="clip1_918_5885">
<rect width="79.2" height="90" fill="white"/>
</clipPath>
</defs>
</svg>
