<svg width="97" height="18" viewBox="0 0 97 18" fill="none" xmlns="http://www.w3.org/2000/svg">
<mask id="mask0_715_16614" style="mask-type:luminance" maskUnits="userSpaceOnUse" x="0" y="0" width="97" height="18">
<path d="M96.4286 0H0V18H96.4286V0Z" fill="white"/>
</mask>
<g mask="url(#mask0_715_16614)">
<path d="M45.371 8.96176L43.0695 10.2089C42.7352 9.79748 42.3238 9.47605 41.8352 9.27033C41.3595 9.05176 40.8324 8.94891 40.2924 8.97462C39.8295 8.94891 39.3667 9.02605 38.9295 9.18033C38.4924 9.33462 38.0938 9.57891 37.7595 9.90033C37.4381 10.2218 37.2067 10.6075 37.0524 11.0189C36.8981 11.4432 36.8338 11.8803 36.8724 12.3303C36.8595 12.7546 36.9238 13.1789 37.091 13.5646C37.2452 13.9632 37.4895 14.3103 37.7981 14.606C38.1195 14.9018 38.5052 15.146 38.9167 15.3003C39.3281 15.4546 39.7781 15.5189 40.2281 15.506C40.781 15.5318 41.321 15.4418 41.8224 15.2232C42.3238 15.0046 42.761 14.6832 43.1081 14.2718L45.2938 15.7632C44.7024 16.5218 43.931 17.126 43.0438 17.5246C42.1567 17.9232 41.1795 18.1032 40.2024 18.0389C39.3667 18.0903 38.5181 17.9489 37.7338 17.666C36.9495 17.3703 36.2424 16.9203 35.651 16.3289C34.5838 15.2618 33.9795 13.8218 33.9924 12.3175C33.9924 11.2889 34.2624 10.2732 34.7895 9.37319C35.3167 8.48605 36.101 7.75319 37.0267 7.26462C38.0167 6.75033 39.1224 6.49319 40.241 6.50605C41.2695 6.48033 42.2852 6.68605 43.1981 7.12319C44.0724 7.54748 44.8052 8.19033 45.3452 8.97462L45.371 8.96176Z" fill="white"/>
<path d="M55.2636 4.61719H57.9636V8.5129H59.5707V10.8015H57.9636V18.0015H55.2636V10.8015H53.875V8.5129H55.2636V4.61719Z" fill="white"/>
<path d="M1.38857 4.61719H4.07571V8.5129H5.68286V10.8015H4.07571V18.0015H1.38857V10.8015H0V8.5129H1.38857V4.61719Z" fill="white"/>
<path d="M72.9657 6.46875C74.02 6.46875 75.0486 6.72589 75.9614 7.24018C76.8614 7.74161 77.6071 8.46161 78.1343 9.33589C78.6614 10.2102 78.9314 11.2002 78.9314 12.2159C78.9314 13.2316 78.6614 14.2345 78.1471 15.1216C77.6329 16.0087 76.8871 16.7416 75.9871 17.243C75.0743 17.7445 74.0329 18.0145 72.9786 18.0016C72.2071 18.0016 71.4357 17.8602 70.7286 17.5645C70.0086 17.2687 69.3657 16.8445 68.8257 16.3173C68.2857 15.7773 67.8486 15.1473 67.5657 14.4402C67.27 13.7459 67.1286 12.9873 67.1414 12.2416C67.1414 10.7245 67.7457 9.25875 68.8386 8.17875C69.9314 7.09875 71.4229 6.48161 72.9786 6.46875H72.9657ZM72.9657 9.05304C72.5671 9.05304 72.1686 9.11732 71.7957 9.27161C71.4229 9.42589 71.0886 9.64446 70.8186 9.92732C70.5229 10.2359 70.2914 10.5959 70.1371 10.9945C69.9829 11.393 69.9186 11.8045 69.9314 12.2287C69.8929 13.0773 70.2014 13.913 70.7929 14.5559C71.0757 14.8387 71.4229 15.0702 71.7957 15.2245C72.1686 15.3787 72.58 15.4559 72.9914 15.4559C73.4029 15.4559 73.8014 15.3787 74.1871 15.2245C74.56 15.0702 74.9071 14.8387 75.19 14.5559C75.4857 14.2473 75.7171 13.8873 75.8714 13.4887C76.0257 13.0902 76.09 12.6659 76.0771 12.2545C76.1029 11.8302 76.0386 11.4187 75.8843 11.0202C75.7429 10.6216 75.5114 10.2616 75.2157 9.95304C74.9329 9.65732 74.5857 9.43875 74.2 9.28446C73.8143 9.13018 73.4157 9.06589 73.0043 9.07875H72.9657V9.05304Z" fill="white"/>
<path d="M19.5585 5.99309C20.6128 5.99309 21.6413 6.26309 22.5542 6.77737C23.2356 7.15023 23.827 7.65166 24.3028 8.25594C24.7785 8.86023 25.1256 9.54166 25.3313 10.2745C25.537 11.0074 25.5885 11.7788 25.4856 12.5245C25.3828 13.2831 25.1256 14.0031 24.7399 14.6588C24.2385 15.5459 23.4928 16.2788 22.5928 16.7674C21.667 17.2817 20.6256 17.5517 19.5713 17.5388C18.7999 17.5388 18.0413 17.4102 17.3213 17.1145C16.6142 16.8317 15.9713 16.3945 15.4313 15.8545C14.8785 15.3274 14.4413 14.6845 14.1456 13.9902C13.8499 13.2831 13.7085 12.5374 13.7213 11.7788C13.6956 10.9559 13.8628 10.1459 14.197 9.40023C14.5313 8.65452 15.0328 7.98594 15.6628 7.44594C16.7299 6.49451 18.1185 5.96737 19.5713 5.99309H19.5585ZM19.5585 8.59023C19.147 8.59023 18.7485 8.65451 18.3628 8.8088C17.9899 8.96309 17.6428 9.19452 17.3728 9.49023C17.0899 9.7988 16.8585 10.1588 16.717 10.5445C16.5756 10.9302 16.5113 11.3545 16.5242 11.7659C16.4985 12.1902 16.5756 12.6145 16.717 13.0131C16.8713 13.4117 17.0899 13.7717 17.3856 14.0931C17.6685 14.3888 18.0028 14.6074 18.3756 14.7617C18.7485 14.9159 19.1599 14.9802 19.5713 14.9674C19.9828 14.9674 20.3942 14.9031 20.7799 14.7488C21.1656 14.5945 21.4999 14.3631 21.7828 14.0674C22.0785 13.7588 22.3099 13.3988 22.4642 13.0002C22.6185 12.6017 22.6828 12.1774 22.6699 11.7659C22.7085 10.9174 22.387 10.0945 21.8085 9.46452C21.5256 9.1688 21.1785 8.95023 20.7928 8.79594C20.407 8.64166 20.0085 8.57737 19.597 8.59023H19.5585Z" fill="white"/>
<path d="M25.5317 5.99219H22.7031V18.0008H25.5317V5.99219Z" fill="white"/>
<path fill-rule="evenodd" clip-rule="evenodd" d="M86.9688 18H89.3345L96.4316 0H94.0659L86.9688 18Z" fill="white"/>
</g>
</svg>
