<svg width="300" height="242" viewBox="0 0 300 242" fill="none" xmlns="http://www.w3.org/2000/svg">
<g clip-path="url(#clip0_1207_13805)">
<path d="M31.14 35.2922H14.37L8.78 48.3522H1.25L22.76 1.24219L44.21 48.3622H36.74L31.15 35.3022L31.14 35.2922ZM28.48 29.1822L22.76 15.7922L16.98 29.1822H28.48Z" fill="black"/>
<path d="M53.6895 3.37984L60.6395 2.33984V48.3498H53.6895V3.37984Z" fill="black"/>
<path d="M87.3997 22.2531C85.5997 22.3031 85.2197 22.3631 83.9197 22.4731V20.1831C80.8197 22.3031 78.9097 23.3431 74.7797 25.1931C73.8597 23.2931 73.0897 22.0931 71.6797 20.4031C75.7597 18.8831 78.0997 17.6831 81.6897 15.2931C78.6397 11.8131 77.0097 10.2831 74.3397 8.43313L78.6397 5.27312C79.2197 5.70646 79.783 6.15979 80.3297 6.63313V1.20312C81.3097 1.36312 82.7797 1.47312 84.5697 1.47312H94.3097C96.7597 1.47312 97.5697 1.42312 98.7697 1.25312C99.3097 3.32312 100.02 4.57313 102.03 6.96313C103.72 5.33313 104.04 4.95312 105.08 3.64313C105.84 2.66313 105.95 2.50312 106.17 2.12312C106.35 1.82979 106.496 1.59312 106.61 1.41312L111.4 4.08312C111.22 4.26312 110.55 5.05979 109.39 6.47312C108.47 7.56312 106.78 9.24313 105.53 10.3931C106.84 11.5331 107.38 11.9731 108.63 12.8931C110.86 10.8831 112.76 8.65312 114.02 6.58313L118.81 9.30313C118.54 9.57313 118.32 9.84313 117.4 10.9331C116.09 12.4531 114.35 14.2531 112.72 15.7231C115.6 17.4631 117.18 18.2231 121.04 19.6931C119.84 21.2131 119.52 21.8131 118.1 24.9131C113.91 22.9531 112.22 22.0331 109.5 20.1831V22.4731C107.98 22.3131 107 22.2531 104.49 22.2531V27.8531H112.76C115.37 27.8531 116.68 27.8031 118.26 27.5231V33.0731C116.68 32.9131 115.1 32.8031 112.76 32.8031H104.49V40.6331C104.49 41.6631 104.55 41.8331 105.31 41.9931C105.96 42.1531 107 42.2631 108.41 42.2631C111.18 42.2631 112.54 42.0431 113.14 41.4431C113.74 40.9031 114.06 39.3231 114.28 36.0031C116.24 37.0331 117.87 37.5231 119.88 37.9031C118.79 46.6631 117.81 47.4231 107.8 47.4231C100.73 47.4231 99.0397 46.5531 99.0397 42.9631V32.7931H92.2897C91.5797 35.9531 90.5997 38.2331 89.0297 40.3031C86.4697 43.7831 83.3197 45.8031 76.8997 48.3531C75.9197 46.3931 74.8297 44.9231 73.1997 43.2431C78.0397 41.8831 80.5497 40.6831 82.8297 38.6231C84.6797 36.9931 85.7097 35.3031 86.5297 32.8031H79.8897C77.4997 32.8031 76.0797 32.8531 74.3897 33.0731V27.5231C75.9697 27.7931 77.3297 27.8531 79.8897 27.8531H87.3397C87.3397 27.1431 87.3897 26.8231 87.3897 26.2731V22.2431L87.3997 22.2531ZM83.4297 6.42313C82.5097 6.42313 81.3097 6.53312 80.3297 6.64312C83.0997 9.03312 84.2997 10.1231 85.9897 12.0331C88.2197 9.96313 89.5297 8.55312 91.0997 6.43312H83.4297V6.42313ZM105.41 17.3031C101.55 14.0931 99.4297 11.8631 96.5397 7.83313C93.5997 11.9131 91.4297 14.2531 87.6697 17.3031H105.41ZM92.9497 26.7231C92.9497 27.1031 92.8997 27.3231 92.8997 27.8631H99.0497V22.2631H92.9597V26.7231H92.9497Z" fill="black"/>
<path d="M144.79 11.2616C147.02 14.8016 148.93 16.5916 152.35 18.4416C151.15 20.1316 150.45 21.4916 149.68 23.4516C146.85 21.1116 145.49 19.5916 143.59 16.7616C143.75 19.1016 143.81 21.0616 143.81 22.4216V25.3016C143.81 27.5916 143.86 28.5116 144.08 29.8716H138.2C138.36 28.7316 138.47 27.3716 138.47 25.3516V22.5216C138.47 22.4716 138.52 21.7016 138.52 20.5116C138.57 20.4616 138.57 20.0216 138.57 19.3716C138.57 18.7216 138.57 18.7216 138.68 17.0316C136.67 20.9516 134.6 23.7816 131.06 27.2016C130.19 25.4016 129.27 23.9916 127.9 22.3016C131.76 19.5316 134.92 15.6616 136.93 11.2516H134.21C132.09 11.2516 130.73 11.3016 129.48 11.4716V5.92156C130.79 6.08156 131.87 6.14156 134.32 6.14156H138.46V4.07156C138.46 2.38156 138.35 1.24156 138.19 0.101562H144.07C143.85 1.35156 143.8 2.11156 143.8 4.29156V6.14156H146.96C148.81 6.14156 149.73 6.09156 151.2 5.92156V11.4716C149.89 11.3116 148.43 11.2516 147.01 11.2516H144.78L144.79 11.2616ZM128.74 42.8816C131.84 38.8016 132.88 36.6216 134.24 31.0716L139.19 33.2516C137.45 39.6216 136.9 40.8716 133.53 46.3116L128.74 42.8816ZM147.4 40.2116C147.4 41.1916 147.67 41.5716 148.49 41.7916C149.2 42.0116 150.39 42.1216 151.86 42.1216C157.74 42.1216 159.37 41.9616 160.08 41.2516C160.62 40.6516 160.9 39.0716 160.95 36.1416C163.02 37.0616 164.05 37.3416 166.55 37.6616C165.79 46.8016 165.03 47.3416 153.65 47.3416C148.75 47.3416 146.74 47.2316 145.16 46.8016C142.49 46.0916 141.73 45.0616 141.73 42.1216V36.0316C141.73 33.6916 141.68 32.8216 141.46 31.0816H147.66C147.44 32.3316 147.39 33.3116 147.39 36.0316V40.2216L147.4 40.2116ZM152.68 28.7316C152.79 27.2116 152.84 26.0616 152.84 24.3216V6.48156C152.84 4.41156 152.79 2.89156 152.62 1.64156C154.14 1.80156 155.61 1.86156 157.68 1.86156H169.05C171.12 1.86156 172.53 1.81156 174.06 1.64156C173.9 3.00156 173.84 4.41156 173.84 6.48156V24.3816C173.84 26.3416 173.89 27.9216 174.06 29.4416C174.01 29.4416 172.43 29.3916 169.27 29.2816H157.35C156.15 29.2816 155.66 29.2816 153.92 29.3316C155.72 31.0216 157.29 32.8116 159.74 35.8616L155.33 39.2316C152.88 35.4216 151.96 34.2216 148.91 31.1816L152.66 28.7316H152.68ZM158.18 9.63156H168.46V6.58156H158.18V9.63156ZM158.18 17.0316H168.46V14.0416H158.18V17.0316ZM158.18 24.5916H168.46V21.4316H158.18V24.5916ZM171.89 45.8116C169.33 40.2116 167.59 37.2116 164.54 33.1916L169.49 30.7416C172.86 35.2616 174.55 37.8716 177.05 42.6616L171.88 45.8216L171.89 45.8116Z" fill="black"/>
<path d="M222.84 10.3417C226.05 10.3417 227.68 10.2917 229.59 10.0717C229.37 11.9717 229.37 12.5217 229.32 14.5917C229.1 27.4917 228.56 35.8617 227.53 40.6517C226.55 45.1117 224.37 46.5817 218.82 46.5817C216.48 46.5817 214.14 46.4217 210.88 45.9817C210.55 43.3717 210.17 41.7917 209.41 39.6117C212.78 40.3717 215.72 40.7017 218.39 40.7017C220.78 40.7017 221.6 39.7817 222.2 36.2417C222.85 32.3817 223.34 24.3817 223.4 15.8917H209.25C208.76 19.8117 208.71 20.2417 208.22 22.4717C206.53 30.6917 203.76 35.8517 198.59 40.7017C195.82 43.2617 193.37 45.0517 189.39 47.2317C188.25 45.0517 186.94 43.3717 185.09 41.7917C192.27 38.6917 197.01 34.5017 199.84 28.7917C201.42 25.6317 202.45 21.5017 203.1 15.8917H194.07C191.4 15.8917 189.28 16.0017 187.54 16.2217V10.0217C189.44 10.2417 191.13 10.3517 194.18 10.3517H203.48C203.59 8.28172 203.59 7.74172 203.59 5.02172C203.59 2.63172 203.48 1.10172 203.26 0.0117188H210.22C210.04 0.885052 209.84 4.33172 209.62 10.3517H222.84V10.3417Z" fill="black"/>
<path d="M248.469 15.0203C247.059 15.3503 246.569 15.5103 244.609 16.2203C243.899 16.4903 243.519 16.6003 243.199 16.6003C241.999 16.6003 240.919 14.3703 239.939 9.69031C243.419 9.53031 244.669 9.36031 250.709 8.44031C257.239 7.46031 265.509 6.21031 269.859 5.67031C274.759 5.02031 278.669 4.36031 280.739 3.93031C281.119 3.82031 281.279 3.82031 281.559 3.82031C282.269 3.82031 282.539 4.15031 283.029 5.51031C283.469 6.65031 283.789 8.28031 283.789 9.05031C283.789 9.70031 283.569 9.92031 282.809 9.92031C281.669 9.92031 280.629 10.0303 279.599 10.1903C270.399 11.7103 263.059 19.7703 263.059 28.2503C263.059 34.6203 268.069 38.8103 276.549 39.5703C277.309 39.6203 277.579 39.9003 277.579 40.5503C277.579 41.9103 277.039 44.5203 276.549 45.7203C276.279 46.3203 275.839 46.5903 275.139 46.5903C274.439 46.5903 272.799 46.2603 271.109 45.7703C261.859 43.0503 257.019 37.1703 257.019 28.8503C257.019 24.3303 258.489 20.1403 261.319 16.5503C262.839 14.5903 264.149 13.5003 267.249 11.3803C260.119 12.5803 252.609 13.9903 248.479 15.0303L248.469 15.0203ZM276.329 16.4303C277.089 16.4303 281.719 21.6003 281.719 22.4203C281.719 22.6903 281.389 23.0203 280.409 23.8903C279.379 24.7603 279.319 24.7603 278.889 24.9203C278.709 24.9936 278.583 25.0303 278.509 25.0303C278.289 25.0303 278.239 24.9803 277.259 23.4503C276.389 22.0903 275.459 20.8903 273.719 19.1003C273.609 18.9903 273.449 18.7203 273.449 18.6703C273.559 18.4003 273.609 18.2303 273.669 18.2303C273.829 18.0103 274.759 17.2503 274.979 17.0903C275.519 16.8203 275.849 16.6003 275.899 16.5503C275.949 16.4403 276.059 16.4403 276.059 16.4403H276.329V16.4303ZM285.639 20.1903C284.819 20.7903 284.329 21.1103 284.059 21.1103C283.839 21.1103 283.729 21.0003 283.459 20.5703C281.829 18.1203 281.009 17.0903 279.269 15.4003C279.159 15.2403 279.049 15.0703 279.049 14.9603C279.049 14.6903 279.379 14.3603 280.139 13.8203C280.899 13.2803 281.549 12.9503 281.829 12.9503C282.209 12.9503 282.859 13.4403 284.009 14.5803C285.589 16.2103 287.059 18.2303 287.059 18.7203C287.059 19.0503 286.679 19.4303 285.649 20.1903H285.639Z" fill="black"/>
<path d="M22.36 83.7831C10.44 84.5431 5.82 85.0331 2.39 85.9631C2.17 86.0131 1.96 86.0731 1.79 86.0731C1.41 86.0731 1.08 85.8031 0.92 85.3631C0.43 84.0031 0.16 82.2031 0 79.4831H1.31C3.05 79.4831 4.68 79.4331 9.91 79.1031C13.94 78.8831 17.36 78.7231 22.26 78.5631C22.2 73.6631 22.15 72.9031 21.66 70.4531C25.85 70.5631 27.97 70.7231 28.73 71.0531C29.06 71.2131 29.22 71.4831 29.22 72.0331C29.22 72.1431 29.16 72.3631 29.06 72.6331C28.57 73.8331 28.41 75.0231 28.3 78.4031C36.24 78.1831 37.44 78.1831 42.88 78.1831C44.35 78.1831 44.57 78.1831 44.73 78.3431C44.95 78.5631 45.06 79.3731 45.06 81.2231C45.06 83.7231 45.01 83.9931 44.3 83.9931H44.08C41.74 83.7731 35.92 83.5531 32.11 83.5531C31.2767 83.5531 29.9533 83.5698 28.14 83.6031L28.03 92.5231C28.85 94.3231 29.12 95.8431 29.12 98.4531C29.12 105.253 26.62 110.473 21.34 114.343C19.16 115.973 16.39 117.393 15.41 117.393C14.92 117.393 14.65 117.233 14.21 116.793C12.69 115.053 11.54 114.183 9.58 113.093C12.84 112.163 14.53 111.403 16.65 110.103C18.23 109.073 19.64 107.923 20.68 106.783C21.39 105.913 21.93 105.093 22.75 103.353C21.17 104.983 19.87 105.583 17.85 105.583C13.28 105.583 10.29 102.103 10.29 96.8231C10.29 91.2731 13.83 87.2431 18.72 87.2431C20.3 87.2431 21.28 87.4631 22.37 87.9531V83.7631L22.36 83.7831ZM15.78 96.5131C15.78 98.8031 17.09 100.373 19.04 100.373C21.11 100.373 22.36 98.9031 22.36 96.4031C22.36 93.9031 21.16 92.3731 19.1 92.3731C17.14 92.3731 15.78 94.0631 15.78 96.5131Z" fill="black"/>
<path d="M60.4702 84.8736C62.7602 82.3136 63.9002 81.6636 66.1302 81.6636C68.3602 81.6636 69.6102 82.3136 71.8402 84.7136C76.3002 89.5036 78.3702 91.4636 83.2102 95.2736C86.3702 97.7736 90.5002 100.384 94.5302 102.404C95.7802 103.054 95.9402 103.224 95.9402 103.604C95.9402 104.204 94.6902 106.544 93.3302 108.444C92.5702 109.534 92.3502 109.754 91.9202 109.754C91.2702 109.754 88.9802 108.344 84.8502 105.344C80.9902 102.624 75.6502 97.7836 70.8102 92.5536C68.4502 89.9803 66.9435 88.6936 66.2902 88.6936C65.2602 88.6936 65.1502 88.7436 62.7002 91.7936C60.9602 93.9136 59.3802 95.7636 56.8202 98.7536C55.5102 100.274 54.9202 101.044 54.5402 101.694C54.1602 102.344 53.8902 102.564 53.5102 102.564C52.9102 102.564 51.9302 101.854 50.5202 100.384C49.3802 99.2436 49.0002 98.7536 47.9102 96.7936C51.5002 94.4536 54.4902 91.6236 60.4802 84.8736H60.4702ZM83.3202 87.9136C83.1002 87.9136 82.8902 87.8036 82.7202 87.4736C81.3602 85.4636 80.2202 84.1036 78.2002 82.3036C77.9302 82.0336 77.8702 81.9236 77.8702 81.7636C77.8702 81.4336 78.5202 80.7836 79.6702 79.9636C80.2102 79.5236 80.3202 79.4736 80.6502 79.4736C81.0902 79.4736 82.2802 80.4536 83.9702 82.1936C85.7102 83.9936 86.3102 84.7536 86.3102 85.1836C86.3102 85.7836 83.9702 87.9036 83.3202 87.9036V87.9136ZM91.5402 81.1736C91.5402 81.7136 89.3102 83.7336 88.7102 83.7336C88.4902 83.7336 88.2802 83.5736 88.0602 83.1936C87.0802 81.7836 85.4502 79.9836 83.5402 78.2436C83.3202 78.0836 83.2702 77.9736 83.2702 77.8636C83.2702 77.3736 85.3902 75.6836 85.9902 75.6836C86.9702 75.6836 91.5402 80.2536 91.5402 81.1836V81.1736Z" fill="black"/>
<path d="M110.469 84.5398C109.059 84.8698 108.569 85.0298 106.609 85.7398C105.899 86.0098 105.519 86.1199 105.199 86.1199C103.999 86.1199 102.919 83.8898 101.939 79.2098C105.419 79.0498 106.669 78.8798 112.709 77.9598C119.239 76.9798 127.509 75.7298 131.859 75.1898C136.759 74.5398 140.669 73.8798 142.739 73.4498C143.119 73.3398 143.279 73.3398 143.559 73.3398C144.269 73.3398 144.539 73.6698 145.029 75.0298C145.459 76.1698 145.789 77.7998 145.789 78.5698C145.789 79.2198 145.569 79.4398 144.809 79.4398C143.669 79.4398 142.629 79.5498 141.599 79.7098C132.399 81.2298 125.059 89.2898 125.059 97.7698C125.059 104.14 130.069 108.33 138.549 109.09C139.309 109.14 139.579 109.42 139.579 110.07C139.579 111.43 139.039 114.04 138.549 115.24C138.279 115.84 137.839 116.11 137.139 116.11C136.439 116.11 134.799 115.78 133.109 115.29C123.859 112.57 119.019 106.69 119.019 98.3699C119.019 93.8498 120.489 89.6598 123.319 86.0698C124.839 84.1098 126.149 83.0198 129.249 80.8998C122.119 82.0998 114.609 83.5099 110.479 84.5499L110.469 84.5398Z" fill="black"/>
<path d="M171.289 104.512C168.679 109.032 165.089 111.532 161.389 111.532C155.729 111.532 151.699 105.982 151.699 98.2517C151.699 89.6517 156.049 82.2517 163.509 78.3417C167.159 76.3817 171.069 75.5117 176.239 75.5117C187.609 75.5117 196.049 83.5617 196.049 94.3417C196.049 103.862 191.369 110.722 182.339 114.582C180.539 115.342 179.129 115.782 178.419 115.782C177.769 115.782 177.489 115.562 176.789 114.532C175.869 113.122 174.829 112.082 173.359 111.102C184.569 108.222 189.629 102.942 189.629 94.1217C189.629 89.6017 187.729 85.8017 184.349 83.4017C182.449 82.0917 180.919 81.5517 177.929 81.0617C176.409 92.5417 174.609 98.8017 171.289 104.512ZM163.449 85.2517C159.799 88.4617 157.739 93.0317 157.739 98.1417C157.739 102.332 159.099 104.782 161.389 104.782C164.109 104.782 166.889 101.032 168.949 94.5517C170.259 90.4717 170.909 87.3717 171.719 81.3317C167.859 82.1517 165.949 83.0717 163.449 85.2517Z" fill="black"/>
<path d="M228.561 70.2327C228.401 71.1027 228.231 73.6627 228.231 75.6227C228.231 84.1127 229.591 89.5527 233.341 96.2427C235.521 100.103 237.861 102.883 241.561 106.143C244.661 108.813 246.241 109.953 249.611 111.743C247.651 113.813 246.781 115.063 245.581 117.563C239.271 113.153 236.001 110.113 232.301 105.263C229.091 101.023 227.131 96.9427 225.391 90.9527C224.361 95.1427 223.431 97.5327 221.251 101.513C219.181 105.323 216.901 108.153 213.251 111.523C210.481 114.023 208.791 115.333 205.141 117.563C203.941 115.113 202.911 113.813 201.061 112.173C206.451 109.293 209.221 107.223 212.491 103.413C219.241 95.6827 222.071 87.1427 222.071 74.6327C222.071 72.6227 222.021 71.6427 221.801 70.2227H228.551L228.561 70.2327Z" fill="black"/>
<path d="M269.86 101.902C270.02 102.172 270.08 102.392 270.08 102.662C270.08 103.042 270.03 103.092 269.54 104.292C268.45 106.792 267.15 110.712 266.49 113.652C266.33 114.252 266.16 114.582 265.95 114.682C265.68 114.792 263.83 115.062 263.23 115.062H263.01C262.74 115.062 262.36 115.012 261.92 115.012C261.21 115.012 261.05 114.852 260.83 114.192C259.8 110.652 258.98 103.362 258.98 97.8723C258.98 91.8823 259.36 88.1923 260.88 80.0223C261.42 77.0823 261.7 75.4523 261.91 73.6523C264.19 74.0923 266.15 74.6323 267.79 75.3923C268.71 75.7723 268.99 76.0423 268.99 76.5923C268.99 76.9723 268.94 77.1323 268.34 78.0023C266.54 80.8823 264.53 92.4223 264.53 100.202C264.53 101.452 264.58 103.142 264.75 105.862C266.27 102.432 266.82 101.402 268.07 98.7323C268.56 99.8723 268.89 100.422 269.87 101.892L269.86 101.902ZM281.66 105.762C283.4 106.682 285.47 107.012 289.11 107.012C292.75 107.012 294.66 106.742 298.03 105.762C298.36 105.652 298.63 105.602 298.79 105.602C299.17 105.602 299.44 105.822 299.5 106.362C299.77 108.212 299.99 110.392 299.99 111.472C299.99 112.012 299.83 112.182 299.07 112.392C296.13 113.152 293.14 113.532 289.49 113.532C284.48 113.532 281.38 112.932 278.83 111.412C276.44 109.942 273.93 106.952 273.93 105.482C273.93 104.722 275.07 103.682 278.01 101.892C278.99 103.852 279.91 104.832 281.65 105.752L281.66 105.762ZM277.85 78.0123C279.05 78.2823 282.53 78.5023 285.2 78.5023C288.79 78.5023 292.38 78.2323 295.76 77.6323C295.94 77.599 296.104 77.5823 296.25 77.5823C296.63 77.5823 296.79 77.7423 296.9 78.1823C297.01 78.7223 297.17 81.1223 297.17 82.5923C297.17 83.4123 297.01 83.6823 296.41 83.7923C294.18 84.2223 290.48 84.5023 286.56 84.5023C281.88 84.5023 277.69 84.2323 277.15 83.9023C276.88 83.7423 276.77 83.3623 276.77 82.3823C276.77 80.9123 276.93 78.7323 277.04 78.3023C277.1 78.0823 277.26 77.9723 277.58 77.9723C277.63 77.9723 277.74 77.9723 277.85 78.0223V78.0123Z" fill="black"/>
<path d="M19.53 144.49C24.05 144.49 27.47 144.44 34.17 144.27C36.56 144.16 37.38 144.11 38.14 143.89C38.68 143.73 38.85 143.73 39.06 143.73C40.09 143.73 41.07 144.55 42.65 146.67C44.01 148.47 44.55 149.55 44.55 150.37C44.55 150.97 44.28 151.35 43.68 151.73C42.81 152.27 42.65 152.44 41.56 153.91C39.6 156.63 37.21 159.19 33.72 162.4C32.31 163.71 31.82 164.03 31.27 164.03C30.89 164.03 30.62 163.92 30.35 163.6C29.04 162.08 27.85 161.15 25.89 160.12C30.08 157.56 32.91 154.84 36.23 150.11C17.55 150.257 7.14 150.51 5 150.87C4.57 150.98 4.4 150.98 4.29 150.98C3.47 150.98 2.98 150.49 2.71 149.4C2.33 147.93 2.11 146.19 2 143.85C4.72 144.34 9.35 144.5 19.52 144.5L19.53 144.49ZM23.94 154.88C25.03 155.15 25.46 155.48 25.46 156.02C25.46 156.167 25.35 156.474 25.13 156.94C24.86 157.65 24.59 158.84 24.31 160.69C23.22 168.09 21.54 172.99 18.71 176.96C16.43 180.12 12.83 183.22 9.68 184.74C9.3 184.96 8.86 185.07 8.65 185.07C8.16 185.07 7.83 184.91 7.45 184.42C6.36 183.11 5.06 182.13 3.21 181.05C6.31 179.58 8.05 178.49 9.96 176.86C15.18 172.34 17.8 165.71 17.8 156.95C17.8 155.7 17.8 154.94 17.69 153.96C20.3 154.12 22.15 154.39 23.95 154.88H23.94Z" fill="black"/>
<path d="M76.0195 167.783C76.0195 174.643 76.1295 179.703 76.3495 183.403V183.783C76.3495 184.383 76.1895 184.603 75.6395 184.653C74.9295 184.813 72.6495 184.923 70.8495 184.923C69.1595 184.923 68.9995 184.813 68.9995 183.893V183.623C69.2195 180.853 69.3295 174.643 69.3295 167.793V160.613C65.6295 163.003 63.8295 164.093 60.6795 165.723C56.7595 167.793 54.8595 168.603 54.1495 168.603C53.7095 168.603 53.3895 168.443 53.0095 168.003C51.4295 166.203 50.5595 165.503 48.4395 164.033C55.3995 161.473 59.3795 159.573 64.2195 156.523C70.1995 152.773 76.4595 147.543 79.9995 143.353C80.7595 142.483 81.0895 141.993 81.7995 140.793C85.2295 143.083 87.6795 145.363 87.6795 146.393C87.6795 146.723 87.4595 146.993 86.8095 147.263C85.8295 147.693 85.4495 147.973 82.8895 150.203C80.4995 152.323 78.1595 154.233 76.0295 155.803V167.773L76.0195 167.783Z" fill="black"/>
<path d="M100.079 162.442H98.8794C98.6594 162.442 98.4994 162.442 98.3895 162.492H97.8995C97.3595 162.492 96.9795 162.222 96.8695 161.622C96.5995 160.262 96.4395 158.522 96.4395 156.022C99.6995 156.352 107.209 156.562 117.499 156.562C126.749 156.562 137.409 156.402 139.099 156.232H139.589C140.349 156.232 140.349 156.282 140.349 159.882C140.349 162.272 140.239 162.552 139.479 162.552H139.099C136.599 162.442 135.559 162.442 122.779 162.282C122.559 166.422 122.349 168.162 121.639 170.662C119.949 176.812 116.739 181.112 111.299 184.482C109.779 185.462 108.579 186.002 108.089 186.002C107.819 186.002 107.599 185.892 107.169 185.462C105.209 183.452 104.559 182.962 102.599 181.982C112.229 177.462 115.769 172.302 116.089 162.232C107.279 162.282 104.279 162.282 100.089 162.452L100.079 162.442ZM105.679 143.782C106.929 143.832 108.019 143.892 108.619 143.892C111.389 144.052 112.209 144.052 115.799 144.052C124.019 144.052 127.929 143.942 130.869 143.612H131.139C131.899 143.612 132.059 143.992 132.059 145.682V146.822C132.059 147.152 132.059 147.692 131.999 148.342C131.999 149.812 131.889 149.972 130.859 149.972C130.259 149.972 126.289 149.862 122.479 149.812C121.659 149.762 120.299 149.762 118.349 149.762C111.389 149.762 106.489 149.872 104.749 150.092C104.589 150.142 104.419 150.142 104.309 150.142C103.769 150.142 103.489 149.922 103.389 149.432C103.169 148.292 102.959 145.682 102.959 143.552C104.049 143.712 104.429 143.712 105.679 143.772V143.782ZM136.689 148.022C135.599 145.952 134.399 144.372 132.659 142.522C132.439 142.302 132.329 142.138 132.329 142.032C132.329 141.702 132.659 141.382 133.579 140.672C134.449 140.072 134.779 139.852 135.099 139.852C135.539 139.852 136.079 140.292 137.439 141.752C139.179 143.652 140.429 145.402 140.429 145.832C140.429 146.162 140.269 146.372 139.609 146.922C138.409 147.952 137.649 148.442 137.219 148.442C136.999 148.442 136.889 148.332 136.679 148.002L136.689 148.022ZM144.369 143.942C143.719 144.432 143.169 144.702 142.899 144.702C142.739 144.702 142.569 144.592 142.359 144.212C141.219 142.252 139.909 140.512 138.279 138.882C138.119 138.722 138.009 138.552 138.009 138.442C138.009 138.062 140.299 136.432 140.779 136.482C141.219 136.532 141.379 136.592 141.979 137.132C143.609 138.652 146.009 141.702 146.009 142.352C146.009 142.682 145.569 143.062 144.379 143.932L144.369 143.942Z" fill="black"/>
<path d="M171.491 144.49C176.011 144.49 179.431 144.44 186.131 144.27C188.521 144.16 189.341 144.11 190.101 143.89C190.641 143.73 190.811 143.73 191.021 143.73C192.051 143.73 193.031 144.55 194.611 146.67C195.971 148.47 196.511 149.55 196.511 150.37C196.511 150.97 196.241 151.35 195.641 151.73C194.771 152.27 194.611 152.44 193.521 153.91C191.561 156.63 189.171 159.19 185.691 162.4C184.281 163.71 183.791 164.03 183.241 164.03C182.861 164.03 182.591 163.92 182.321 163.6C181.011 162.08 179.821 161.15 177.861 160.12C182.051 157.56 184.881 154.84 188.201 150.11C169.521 150.257 159.111 150.51 156.971 150.87C156.541 150.98 156.371 150.98 156.261 150.98C155.441 150.98 154.951 150.49 154.681 149.4C154.301 147.93 154.081 146.19 153.971 143.85C156.691 144.34 161.321 144.5 171.491 144.5V144.49ZM175.901 154.88C176.991 155.15 177.421 155.48 177.421 156.02C177.421 156.167 177.311 156.474 177.091 156.94C176.821 157.65 176.551 158.84 176.271 160.69C175.181 168.09 173.501 172.99 170.671 176.96C168.381 180.12 164.791 183.22 161.641 184.74C161.261 184.96 160.821 185.07 160.611 185.07C160.121 185.07 159.791 184.91 159.411 184.42C158.321 183.11 157.021 182.13 155.171 181.05C158.271 179.58 160.011 178.49 161.921 176.86C167.141 172.34 169.761 165.71 169.761 156.95C169.761 155.7 169.761 154.94 169.651 153.96C172.261 154.12 174.111 154.39 175.911 154.88H175.901Z" fill="black"/>
<path d="M226.79 170.393C221.4 173.553 219.88 175.123 219.88 177.523C219.88 178.503 220.26 179.153 221.08 179.643C222.28 180.353 224.94 180.733 228.37 180.733C231.31 180.733 235.39 180.463 238.16 180.083C239.3 179.923 239.95 179.753 242.13 179.213H242.4C242.78 179.213 243.05 179.483 243.22 179.863C243.55 181.003 243.76 182.643 243.76 184.593C243.76 185.413 243.49 185.733 242.78 185.903C241.47 186.173 235.43 186.503 231.46 186.503C224.82 186.503 221.29 186.063 218.67 184.983C215.51 183.673 213.94 181.233 213.94 177.803C213.94 174.643 215.41 171.873 218.35 169.533C220.69 167.683 221.23 167.303 226.24 164.473C225.81 162.673 224.99 161.913 223.3 161.913C221.07 161.913 218.73 162.783 216.17 164.473C214.59 165.563 212.74 167.083 211.6 168.223C209.97 169.913 209.8 170.023 209.37 170.023C208.83 170.023 207.68 168.773 206.54 166.863C206 165.943 205.67 165.233 205.67 164.853C205.67 164.363 205.78 164.253 207.08 163.443C211.54 160.453 215.24 156.643 217.47 152.723C213.61 152.993 211.59 153.053 209.47 153.053C208.65 153.053 208.49 152.893 208.22 151.963C208.06 151.253 207.79 148.373 207.73 146.903C209.58 147.173 210.67 147.233 213.28 147.233C215.4 147.233 217.74 147.183 220.19 147.073C221.33 143.973 221.71 142.013 221.77 139.453C226.61 140.273 228.84 141.083 228.84 142.013C228.84 142.233 228.79 142.343 228.62 142.663C228.24 143.373 227.8 144.243 227.1 145.923C227.027 146.07 226.973 146.196 226.94 146.303C230.04 145.863 232.76 145.323 234.67 144.893C235.87 144.563 236.14 144.513 236.41 144.513C236.85 144.513 237.06 144.673 237.17 145.003C237.39 145.983 237.72 148.483 237.72 149.243C237.72 149.843 237.5 150.113 236.79 150.273C235.05 150.763 229.06 151.683 224.06 152.173C222.43 155.163 221.29 156.903 219.6 158.753C222.05 157.613 223.9 157.173 226.07 157.173C228.52 157.173 230.15 158.583 231.24 161.633C236.63 158.693 239.51 157.113 239.84 156.903C242.34 155.433 243.38 154.613 244.57 153.253C246.8 155.543 249.19 158.963 249.19 159.893C249.19 160.223 248.97 160.433 248.27 160.603C245.6 161.313 240.65 163.433 232.38 167.463C232.44 168.443 232.54 170.943 232.54 172.683V175.293C232.54 175.943 232.43 176.273 232.16 176.433C231.89 176.703 230.42 176.873 228.79 176.873C226.94 176.873 226.61 176.713 226.61 175.843V175.623C226.72 174.043 226.77 171.973 226.77 170.673V170.403L226.79 170.393Z" fill="black"/>
<path d="M9.13953 218.66V229.88C9.13953 230.88 9.40953 231.69 9.94953 232.31C10.4895 232.93 11.2795 233.24 12.3295 233.24C13.3795 233.24 14.1895 232.93 14.7195 232.31C15.2495 231.69 15.5195 230.88 15.5195 229.88V218.66H18.6395V230.03C18.6395 230.98 18.4895 231.83 18.1795 232.58C17.8695 233.33 17.4295 233.96 16.8595 234.48C16.2895 235 15.6195 235.39 14.8495 235.66C14.0795 235.93 13.2395 236.07 12.3195 236.07C11.3995 236.07 10.5795 235.93 9.79953 235.66C9.02953 235.39 8.35953 234.99 7.78953 234.48C7.22953 233.96 6.78953 233.33 6.47953 232.58C6.16953 231.83 6.01953 230.98 6.01953 230.03V218.66H9.10953H9.13953Z" fill="black"/>
<path d="M28.4402 227.017C28.1202 226.617 27.6202 226.417 26.9402 226.417C26.4602 226.417 26.0402 226.517 25.6802 226.707C25.3202 226.897 25.0502 227.177 24.8602 227.537C24.6702 227.897 24.5702 228.327 24.5702 228.807V235.577H21.7402V224.457H24.5702V226.147C24.9202 225.517 25.3802 225.037 25.9402 224.707C26.5002 224.377 27.1602 224.207 27.9402 224.207C29.2102 224.207 30.1802 224.587 30.8402 225.347C31.5002 226.107 31.8302 227.157 31.8302 228.487V235.577H28.9302V228.807C28.9302 228.017 28.7702 227.417 28.4502 227.017H28.4402Z" fill="black"/>
<path d="M37.4589 216.719V235.579H34.6289V216.719H37.4589Z" fill="black"/>
<path d="M40.4504 226.967C40.9804 226.097 41.7104 225.417 42.6304 224.937C43.5504 224.457 44.5804 224.207 45.7304 224.207C46.8804 224.207 47.9304 224.447 48.8404 224.937C49.7504 225.417 50.4704 226.097 51.0004 226.967C51.5304 227.837 51.8004 228.857 51.8004 230.017C51.8004 231.177 51.5304 232.167 51.0004 233.037C50.4704 233.907 49.7504 234.587 48.8404 235.077C47.9304 235.567 46.8904 235.817 45.7304 235.817C44.5704 235.817 43.5504 235.567 42.6304 235.077C41.7104 234.587 40.9904 233.907 40.4504 233.037C39.9204 232.167 39.6504 231.157 39.6504 230.017C39.6504 228.877 39.9204 227.837 40.4504 226.967ZM42.9704 231.787C43.2504 232.287 43.6304 232.677 44.1104 232.957C44.5904 233.237 45.1204 233.377 45.7204 233.377C46.3204 233.377 46.8604 233.237 47.3404 232.957C47.8204 232.677 48.2104 232.287 48.4904 231.787C48.7704 231.287 48.9104 230.697 48.9104 230.017C48.9104 229.337 48.7704 228.747 48.4904 228.237C48.2104 227.727 47.8204 227.337 47.3404 227.057C46.8604 226.777 46.3204 226.637 45.7204 226.637C45.1204 226.637 44.5904 226.777 44.1104 227.057C43.6304 227.337 43.2604 227.737 42.9704 228.237C42.6904 228.747 42.5504 229.337 42.5504 230.017C42.5504 230.697 42.6904 231.287 42.9704 231.787Z" fill="black"/>
<path d="M56.6198 231.809C56.9098 232.329 57.3098 232.729 57.8298 233.019C58.3498 233.309 58.9198 233.459 59.5498 233.459C60.0698 233.459 60.5598 233.379 61.0198 233.219C61.4898 233.059 61.8998 232.839 62.2598 232.549C62.6198 232.269 62.8998 231.959 63.0898 231.619V234.619C62.6998 234.989 62.1898 235.289 61.5398 235.499C60.8898 235.719 60.1698 235.829 59.3598 235.829C58.2098 235.829 57.1798 235.579 56.2498 235.089C55.3198 234.599 54.5898 233.919 54.0598 233.049C53.5298 232.179 53.2598 231.169 53.2598 230.029C53.2598 228.889 53.5298 227.859 54.0598 226.989C54.5898 226.129 55.3198 225.449 56.2498 224.959C57.1798 224.469 58.2098 224.219 59.3598 224.219C60.1698 224.219 60.8898 224.329 61.5398 224.549C62.1798 224.769 62.6998 225.049 63.0898 225.409V228.429C62.8998 228.059 62.6098 227.739 62.2398 227.479C61.8698 227.209 61.4498 226.999 60.9698 226.839C60.4898 226.679 60.0098 226.599 59.5298 226.599C58.8998 226.599 58.3298 226.749 57.8098 227.049C57.2898 227.349 56.8898 227.759 56.5998 228.269C56.3098 228.789 56.1698 229.369 56.1698 230.039C56.1698 230.709 56.3098 231.309 56.5998 231.829L56.6198 231.809Z" fill="black"/>
<path d="M68.439 216.719V235.579H65.709V216.719H68.439ZM75.939 224.459L71.149 229.049L76.419 235.579H73.039L67.739 229.049L72.529 224.459H75.939Z" fill="black"/>
<path d="M78.1997 218.888C78.5497 218.578 78.9497 218.418 79.4197 218.418C79.8897 218.418 80.3197 218.578 80.6497 218.888C80.9797 219.198 81.1597 219.598 81.1597 220.088C81.1597 220.578 80.9897 220.948 80.6497 221.268C80.3097 221.588 79.8997 221.748 79.4197 221.748C78.9397 221.748 78.5497 221.588 78.1997 221.268C77.8497 220.948 77.6797 220.548 77.6797 220.088C77.6797 219.628 77.8497 219.208 78.1997 218.888ZM80.7997 224.458V235.578H78.0397V224.458H80.7997Z" fill="black"/>
<path d="M90.3699 227.017C90.0499 226.617 89.5499 226.417 88.8699 226.417C88.3899 226.417 87.9699 226.517 87.6099 226.707C87.2499 226.897 86.9799 227.177 86.7899 227.537C86.5999 227.897 86.4999 228.327 86.4999 228.807V235.577H83.6699V224.457H86.4999V226.147C86.8599 225.517 87.3099 225.037 87.8699 224.707C88.4299 224.377 89.0899 224.207 89.8599 224.207C91.1299 224.207 92.0999 224.587 92.7599 225.347C93.4199 226.107 93.7499 227.157 93.7499 228.487V235.577H90.8499V228.807C90.8499 228.017 90.6899 227.417 90.3699 227.017Z" fill="black"/>
<path d="M96.6897 226.82C97.1997 225.97 97.8597 225.33 98.6797 224.89C99.4997 224.45 100.39 224.23 101.34 224.23C102.29 224.23 103.09 224.46 103.8 224.91C104.5 225.36 105.06 226.01 105.47 226.87C105.88 227.72 106.09 228.76 106.09 229.97C106.09 231.18 105.88 232.19 105.47 233.04C105.06 233.89 104.5 234.55 103.8 235.01C103.1 235.47 102.28 235.7 101.34 235.7C100.4 235.7 99.4997 235.47 98.6797 235.02C97.8597 234.57 97.1897 233.92 96.6897 233.06C96.1797 232.21 95.9297 231.17 95.9297 229.96C95.9297 228.75 96.1797 227.67 96.6897 226.83V226.82ZM98.9497 236.36C98.9697 236.84 99.0997 237.27 99.3597 237.65C99.6197 238.03 99.9697 238.33 100.41 238.54C100.85 238.75 101.37 238.87 101.97 238.87C102.5 238.87 103.01 238.74 103.49 238.5C103.97 238.25 104.37 237.86 104.67 237.34C104.98 236.82 105.13 236.15 105.13 235.34V224.46H107.86V235.34C107.86 236.69 107.59 237.81 107.05 238.68C106.51 239.55 105.8 240.2 104.92 240.63C104.04 241.06 103.08 241.27 102.03 241.27C100.79 241.27 99.7397 241.06 98.8897 240.65C98.0397 240.24 97.3797 239.66 96.9197 238.92C96.4597 238.18 96.2097 237.32 96.1597 236.36H98.9397H98.9497ZM99.3197 231.76C99.6097 232.26 99.9997 232.63 100.49 232.88C100.98 233.13 101.51 233.25 102.07 233.25C102.57 233.25 103.05 233.13 103.52 232.88C103.99 232.63 104.37 232.26 104.68 231.77C104.99 231.28 105.14 230.67 105.14 229.94C105.14 229.39 105.05 228.91 104.86 228.5C104.67 228.09 104.44 227.74 104.15 227.46C103.86 227.18 103.53 226.96 103.17 226.82C102.81 226.67 102.44 226.6 102.07 226.6C101.51 226.6 100.98 226.73 100.49 226.99C99.9997 227.25 99.6097 227.62 99.3197 228.11C99.0297 228.6 98.8897 229.21 98.8897 229.94C98.8897 230.67 99.0297 231.25 99.3197 231.75V231.76Z" fill="black"/>
<path d="M118.93 231.809C119.22 232.329 119.62 232.729 120.14 233.019C120.66 233.309 121.23 233.459 121.86 233.459C122.38 233.459 122.87 233.379 123.33 233.219C123.8 233.059 124.21 232.839 124.58 232.549C124.94 232.269 125.22 231.959 125.41 231.619V234.619C125.02 234.989 124.51 235.289 123.86 235.499C123.21 235.719 122.49 235.829 121.68 235.829C120.54 235.829 119.5 235.579 118.57 235.089C117.64 234.599 116.91 233.919 116.38 233.049C115.85 232.179 115.58 231.169 115.58 230.029C115.58 228.889 115.85 227.859 116.38 226.989C116.91 226.129 117.64 225.449 118.57 224.959C119.5 224.469 120.53 224.219 121.68 224.219C122.49 224.219 123.21 224.329 123.86 224.549C124.5 224.769 125.02 225.049 125.41 225.409V228.429C125.22 228.059 124.93 227.739 124.56 227.479C124.19 227.209 123.77 226.999 123.29 226.839C122.81 226.679 122.34 226.599 121.85 226.599C121.22 226.599 120.65 226.749 120.13 227.049C119.61 227.349 119.21 227.759 118.92 228.269C118.63 228.789 118.49 229.369 118.49 230.039C118.49 230.709 118.64 231.309 118.92 231.829L118.93 231.809Z" fill="black"/>
<path d="M130.8 235.579H128.02V224.459H130.8V235.579ZM133.44 226.999C133.23 226.899 132.96 226.849 132.64 226.849C132.22 226.849 131.87 226.959 131.6 227.179C131.33 227.399 131.12 227.699 130.99 228.089C130.86 228.479 130.8 228.939 130.8 229.469L129.93 228.819C129.93 227.929 130.1 227.149 130.44 226.459C130.78 225.779 131.21 225.229 131.75 224.819C132.28 224.409 132.83 224.199 133.39 224.199C133.79 224.199 134.17 224.269 134.53 224.409C134.88 224.549 135.18 224.769 135.43 225.079L134.1 227.449C133.87 227.259 133.66 227.109 133.45 227.009L133.44 226.999Z" fill="black"/>
<path d="M138.54 235.099C137.66 234.619 136.98 233.939 136.5 233.069C136.02 232.199 135.77 231.179 135.77 230.019C135.77 228.859 136.01 227.819 136.5 226.949C136.98 226.079 137.67 225.409 138.56 224.929C139.45 224.449 140.49 224.219 141.68 224.219C142.87 224.219 143.91 224.449 144.75 224.899C145.59 225.349 146.23 225.999 146.67 226.849C147.11 227.699 147.34 228.709 147.34 229.879C147.34 230.029 147.34 230.169 147.33 230.329C147.33 230.479 147.31 230.589 147.29 230.659H137.45V228.819H144.85L144.03 229.929C144.09 229.829 144.15 229.699 144.21 229.529C144.27 229.359 144.29 229.219 144.29 229.109C144.29 228.549 144.18 228.049 143.95 227.639C143.72 227.219 143.42 226.889 143.03 226.659C142.64 226.429 142.18 226.309 141.65 226.309C141 226.309 140.46 226.449 140.02 226.729C139.58 227.009 139.24 227.419 139 227.949C138.77 228.479 138.64 229.149 138.63 229.959C138.63 230.729 138.75 231.389 138.98 231.929C139.21 232.469 139.56 232.879 140.02 233.159C140.48 233.439 141.03 233.579 141.68 233.579C142.39 233.579 143 233.439 143.52 233.159C144.04 232.879 144.46 232.449 144.8 231.889L147.24 232.759C146.66 233.789 145.9 234.559 144.97 235.069C144.03 235.579 142.91 235.829 141.61 235.829C140.45 235.829 139.43 235.589 138.55 235.099H138.54Z" fill="black"/>
<path d="M151.789 233.028C151.959 233.278 152.189 233.468 152.489 233.598C152.789 233.728 153.129 233.788 153.519 233.788C154.019 233.788 154.469 233.688 154.889 233.478C155.309 233.268 155.629 232.968 155.879 232.568C156.129 232.168 156.249 231.698 156.249 231.158L156.639 232.608C156.639 233.318 156.439 233.908 156.039 234.388C155.639 234.868 155.129 235.218 154.519 235.468C153.909 235.708 153.259 235.828 152.589 235.828C151.919 235.828 151.249 235.688 150.659 235.418C150.069 235.148 149.589 234.738 149.229 234.208C148.869 233.678 148.699 233.028 148.699 232.278C148.699 231.218 149.079 230.368 149.839 229.728C150.599 229.088 151.669 228.768 153.059 228.768C153.799 228.768 154.439 228.848 154.979 228.998C155.519 229.148 155.969 229.338 156.319 229.538C156.669 229.748 156.919 229.948 157.069 230.138V231.518C156.599 231.178 156.089 230.928 155.549 230.768C154.999 230.608 154.409 230.528 153.779 230.528C153.259 230.528 152.839 230.588 152.509 230.718C152.179 230.848 151.939 231.028 151.779 231.258C151.629 231.488 151.549 231.778 151.549 232.118C151.549 232.458 151.629 232.778 151.799 233.028H151.789ZM149.449 225.498C149.979 225.188 150.649 224.898 151.459 224.608C152.269 224.318 153.189 224.168 154.239 224.168C155.169 224.168 155.999 224.308 156.719 224.578C157.439 224.848 157.999 225.248 158.399 225.778C158.799 226.298 158.999 226.938 158.999 227.678V235.588H156.239V228.238C156.239 227.918 156.189 227.638 156.079 227.418C155.969 227.188 155.819 227.008 155.609 226.858C155.399 226.708 155.149 226.608 154.869 226.548C154.589 226.488 154.279 226.448 153.939 226.448C153.419 226.448 152.939 226.508 152.479 226.628C152.019 226.748 151.619 226.888 151.279 227.048C150.939 227.208 150.689 227.348 150.529 227.458L149.439 225.498H149.449Z" fill="black"/>
<path d="M166.93 224.46V226.9H160.4V224.46H166.93ZM165.05 220.59V235.58H162.29V220.59H165.05Z" fill="black"/>
<path d="M168.68 218.888C169.03 218.578 169.43 218.418 169.9 218.418C170.37 218.418 170.79 218.578 171.13 218.888C171.47 219.198 171.64 219.598 171.64 220.088C171.64 220.578 171.47 220.948 171.13 221.268C170.79 221.588 170.38 221.748 169.9 221.748C169.42 221.748 169.03 221.588 168.68 221.268C168.33 220.948 168.16 220.548 168.16 220.088C168.16 219.628 168.33 219.208 168.68 218.888ZM171.28 224.458V235.578H168.52V224.458H171.28Z" fill="black"/>
<path d="M175.82 224.457L178.65 231.447L181.5 224.457H184.57L178.65 236.667L172.75 224.457H175.82Z" fill="black"/>
<path d="M187.629 235.099C186.749 234.619 186.069 233.939 185.589 233.069C185.109 232.199 184.859 231.179 184.859 230.019C184.859 228.859 185.099 227.819 185.589 226.949C186.069 226.079 186.759 225.409 187.649 224.929C188.539 224.449 189.579 224.219 190.769 224.219C191.959 224.219 192.999 224.449 193.839 224.899C194.679 225.349 195.319 225.999 195.759 226.849C196.199 227.699 196.429 228.709 196.429 229.879C196.429 230.029 196.429 230.169 196.419 230.329C196.419 230.479 196.399 230.589 196.379 230.659H186.539V228.819H193.939L193.119 229.929C193.179 229.829 193.239 229.699 193.299 229.529C193.359 229.359 193.379 229.219 193.379 229.109C193.379 228.549 193.269 228.049 193.039 227.639C192.809 227.219 192.509 226.889 192.119 226.659C191.729 226.429 191.269 226.309 190.739 226.309C190.099 226.309 189.549 226.449 189.109 226.729C188.669 227.009 188.329 227.419 188.089 227.949C187.859 228.479 187.729 229.149 187.719 229.959C187.719 230.729 187.839 231.389 188.069 231.929C188.299 232.469 188.649 232.879 189.109 233.159C189.569 233.439 190.119 233.579 190.769 233.579C191.479 233.579 192.089 233.439 192.609 233.159C193.129 232.879 193.549 232.449 193.889 231.889L196.329 232.759C195.749 233.789 194.989 234.559 194.059 235.069C193.129 235.579 191.999 235.829 190.699 235.829C189.539 235.829 188.519 235.589 187.639 235.099H187.629Z" fill="black"/>
<path d="M204.25 226.82C204.76 225.97 205.42 225.33 206.25 224.89C207.07 224.45 207.96 224.23 208.91 224.23C209.86 224.23 210.66 224.46 211.37 224.91C212.07 225.36 212.63 226.01 213.04 226.87C213.45 227.72 213.66 228.76 213.66 229.97C213.66 231.18 213.45 232.19 213.04 233.04C212.63 233.89 212.07 234.55 211.37 235.01C210.67 235.47 209.85 235.7 208.91 235.7C207.97 235.7 207.07 235.47 206.25 235.02C205.43 234.57 204.76 233.92 204.25 233.06C203.74 232.21 203.49 231.17 203.49 229.96C203.49 228.75 203.74 227.67 204.25 226.83V226.82ZM206.51 236.36C206.53 236.84 206.66 237.27 206.92 237.65C207.18 238.03 207.53 238.33 207.97 238.54C208.41 238.76 208.93 238.87 209.53 238.87C210.06 238.87 210.57 238.74 211.05 238.5C211.53 238.25 211.93 237.86 212.23 237.34C212.54 236.82 212.69 236.15 212.69 235.34V224.46H215.42V235.34C215.42 236.69 215.15 237.81 214.61 238.68C214.07 239.55 213.36 240.2 212.48 240.63C211.6 241.06 210.64 241.27 209.59 241.27C208.35 241.27 207.3 241.06 206.45 240.65C205.59 240.24 204.94 239.66 204.48 238.92C204.02 238.18 203.77 237.32 203.72 236.36H206.5H206.51ZM206.87 231.76C207.16 232.26 207.55 232.63 208.04 232.88C208.53 233.13 209.06 233.25 209.62 233.25C210.12 233.25 210.6 233.13 211.07 232.88C211.54 232.63 211.92 232.26 212.23 231.77C212.54 231.28 212.69 230.67 212.69 229.94C212.69 229.39 212.6 228.91 212.41 228.5C212.22 228.09 211.99 227.74 211.7 227.46C211.41 227.18 211.08 226.96 210.72 226.82C210.36 226.67 209.99 226.6 209.62 226.6C209.06 226.6 208.53 226.73 208.04 226.99C207.55 227.25 207.16 227.62 206.87 228.11C206.58 228.6 206.43 229.21 206.43 229.94C206.43 230.67 206.58 231.25 206.87 231.75V231.76Z" fill="black"/>
<path d="M221.01 235.579H218.23V224.459H221.01V235.579ZM223.64 226.999C223.43 226.899 223.16 226.849 222.84 226.849C222.42 226.849 222.07 226.959 221.8 227.179C221.53 227.399 221.32 227.699 221.2 228.089C221.07 228.479 221.01 228.939 221.01 229.469L220.14 228.819C220.14 227.929 220.31 227.149 220.65 226.459C220.99 225.779 221.42 225.229 221.96 224.819C222.49 224.409 223.04 224.199 223.6 224.199C224 224.199 224.38 224.269 224.74 224.409C225.09 224.549 225.39 224.769 225.64 225.079L224.31 227.449C224.08 227.259 223.87 227.109 223.66 227.009L223.64 226.999Z" fill="black"/>
<path d="M226.71 226.967C227.24 226.097 227.97 225.417 228.89 224.937C229.81 224.457 230.84 224.207 231.99 224.207C233.14 224.207 234.19 224.447 235.1 224.937C236.01 225.417 236.73 226.097 237.26 226.967C237.79 227.837 238.06 228.857 238.06 230.017C238.06 231.177 237.79 232.167 237.26 233.037C236.73 233.907 236.01 234.587 235.1 235.077C234.19 235.567 233.15 235.817 231.99 235.817C230.83 235.817 229.81 235.567 228.89 235.077C227.97 234.587 227.25 233.907 226.71 233.037C226.18 232.167 225.91 231.157 225.91 230.017C225.91 228.877 226.18 227.837 226.71 226.967ZM229.24 231.787C229.52 232.287 229.9 232.677 230.38 232.957C230.86 233.237 231.39 233.377 231.99 233.377C232.59 233.377 233.13 233.237 233.61 232.957C234.09 232.677 234.48 232.287 234.76 231.787C235.04 231.287 235.18 230.697 235.18 230.017C235.18 229.337 235.04 228.747 234.76 228.237C234.48 227.727 234.09 227.337 233.61 227.057C233.13 226.777 232.59 226.637 231.99 226.637C231.39 226.637 230.86 226.777 230.38 227.057C229.9 227.337 229.53 227.737 229.24 228.237C228.96 228.747 228.82 229.337 228.82 230.017C228.82 230.697 228.96 231.287 229.24 231.787Z" fill="black"/>
<path d="M241.349 224.459L243.889 230.889L246.979 223.609L250.239 230.939L252.799 224.459H255.819L250.519 236.359L246.989 229.029L243.599 236.359L238.299 224.459H241.319H241.349Z" fill="black"/>
<path d="M263.1 224.46V226.9H256.57V224.46H263.1ZM261.21 220.59V235.58H258.45V220.59H261.21Z" fill="black"/>
<path d="M267.51 235.579H264.68V216.719H267.51V235.579ZM271.39 227.019C271.08 226.619 270.57 226.419 269.88 226.419C269.4 226.419 268.98 226.519 268.62 226.719C268.26 226.919 267.99 227.199 267.8 227.549C267.61 227.899 267.51 228.319 267.51 228.809H266.88C266.88 227.919 267.04 227.129 267.35 226.429C267.66 225.729 268.12 225.169 268.7 224.749C269.28 224.329 270.01 224.119 270.86 224.119C271.71 224.119 272.4 224.279 272.96 224.599C273.52 224.919 273.95 225.399 274.24 226.039C274.53 226.679 274.67 227.469 274.67 228.419V235.579H271.84V228.809C271.84 228.019 271.68 227.419 271.37 227.019H271.39Z" fill="black"/>
<path d="M277.979 232.999C278.329 232.649 278.759 232.469 279.269 232.469C279.779 232.469 280.219 232.649 280.559 232.999C280.899 233.349 281.079 233.779 281.079 234.279C281.079 234.779 280.909 235.179 280.559 235.539C280.209 235.889 279.779 236.069 279.269 236.069C278.759 236.069 278.319 235.889 277.979 235.539C277.629 235.189 277.459 234.769 277.459 234.279C277.459 233.789 277.629 233.349 277.979 232.999Z" fill="black"/>
</g>
<defs>
<clipPath id="clip0_1207_13805">
<rect width="300" height="241.27" fill="white"/>
</clipPath>
</defs>
</svg>
