<svg width="360" height="359" viewBox="0 0 360 359" fill="none" xmlns="http://www.w3.org/2000/svg">
<path d="M180 21.5C180 9.07359 190.113 -1.14505 202.442 0.404187C236.22 4.64841 268.269 18.4122 294.736 40.3076C327.011 67.0072 348.963 104.127 356.812 145.271C364.66 186.416 357.914 229.01 337.735 265.716C317.556 302.421 285.208 330.94 246.262 346.36C207.317 361.779 164.214 363.134 124.377 350.19C84.5403 337.246 50.465 310.815 28.0209 275.449C5.57694 240.083 -3.83045 197.996 1.41936 156.44C5.72456 122.361 19.6658 90.3881 41.383 64.172C49.3103 54.6026 63.6774 55.1289 72.1839 64.1874C80.6903 73.2459 80.0618 87.3929 72.5401 97.2844C58.251 116.075 49.056 138.4 46.0645 162.08C42.1272 193.247 49.1827 224.812 66.0157 251.337C82.8487 277.861 108.405 297.685 138.283 307.393C168.16 317.1 200.488 316.084 229.697 304.52C258.906 292.955 283.167 271.566 298.301 244.037C313.436 216.508 318.495 184.562 312.609 153.704C306.722 122.845 290.258 95.0054 266.052 74.9807C247.661 59.7664 225.676 49.7871 202.397 45.8705C190.143 43.8089 180 33.9264 180 21.5Z" fill="#C3B4FF"/>
</svg>
