<svg width="360" height="359" viewBox="0 0 360 359" fill="none" xmlns="http://www.w3.org/2000/svg">
<path d="M180 21.5C180 9.07359 190.113 -1.14508 202.443 0.404128C238.112 4.88602 271.812 19.9791 299.036 43.98C331.915 72.9665 353.087 112.954 358.581 156.44C364.074 199.926 353.512 243.923 328.874 280.175C304.237 316.427 267.219 342.444 224.764 353.345C182.309 364.245 137.336 359.28 98.2817 339.381C59.2273 319.482 28.7758 286.016 12.6402 245.262C-3.49533 204.509 -4.20602 159.268 10.6415 118.027C22.9353 83.8798 45.1961 54.4184 74.2942 33.307C84.3523 26.0097 98.1374 30.0923 104.124 40.9817C110.11 51.871 105.983 65.4173 96.2379 73.1274C76.6086 88.6575 61.5595 109.443 52.9811 133.27C41.8455 164.201 42.3785 198.131 54.4802 228.697C66.5818 259.262 89.4204 284.361 118.711 299.286C148.002 314.21 181.732 317.934 213.573 309.759C245.414 301.583 273.178 282.071 291.656 254.881C310.134 227.692 318.056 194.695 313.935 162.08C309.815 129.465 293.936 99.4749 269.277 77.735C250.281 60.9875 227.08 50.0231 202.397 45.8705C190.143 43.8088 180 33.9264 180 21.5Z" fill="#FF7EE1"/>
</svg>
