<svg width="690" height="231" viewBox="0 0 690 231" fill="none" xmlns="http://www.w3.org/2000/svg">
<g clip-path="url(#clip0_723_17348)">
<path d="M114.85 172.275C146.565 172.275 172.275 146.565 172.275 114.85C172.275 83.1356 146.565 57.4258 114.85 57.4258C83.1356 57.4258 57.4258 83.1356 57.4258 114.85C57.4258 146.565 83.1356 172.275 114.85 172.275Z" fill="#C3B4FF"/>
<path d="M57.4245 114.849C89.1392 114.849 114.849 89.1392 114.849 57.4245C114.849 25.7098 89.1392 0 57.4245 0C25.7098 0 0 25.7098 0 57.4245C0 89.1392 25.7098 114.849 57.4245 114.849Z" fill="#AE8700"/>
<path d="M172.272 114.849C203.987 114.849 229.697 89.1392 229.697 57.4245C229.697 25.7098 203.987 0 172.272 0C140.557 0 114.848 25.7098 114.848 57.4245C114.848 89.1392 140.557 114.849 172.272 114.849Z" fill="#AE8700"/>
<path d="M57.4245 229.697C89.1392 229.697 114.849 203.987 114.849 172.272C114.849 140.557 89.1392 114.848 57.4245 114.848C25.7098 114.848 0 140.557 0 172.272C0 203.987 25.7098 229.697 57.4245 229.697Z" fill="#AE8700"/>
<path d="M172.272 229.697C203.987 229.697 229.697 203.987 229.697 172.272C229.697 140.557 203.987 114.848 172.272 114.848C140.557 114.848 114.848 140.557 114.848 172.272C114.848 203.987 140.557 229.697 172.272 229.697Z" fill="#AE8700"/>
</g>
<g clip-path="url(#clip1_723_17348)">
<path d="M459.397 229.698C459.397 102.841 356.556 0 229.699 0V229.698H459.397Z" fill="#FF7EE1"/>
<path d="M344.548 229.697C344.548 166.262 293.134 114.848 229.699 114.848V229.697H344.548Z" fill="#8AA4AD"/>
</g>
<g clip-path="url(#clip2_723_17348)">
<path d="M459.398 230.602C523.083 230.602 574.7 178.986 574.7 115.301C574.7 51.6165 523.083 0 459.398 0V230.602Z" fill="#FC6600"/>
<path d="M690 0C626.316 0 574.699 51.6165 574.699 115.301C574.699 178.986 626.316 230.602 690 230.602V0Z" fill="#00695A"/>
</g>
<defs>
<clipPath id="clip0_723_17348">
<rect width="229.698" height="229.698" fill="white"/>
</clipPath>
<clipPath id="clip1_723_17348">
<rect width="229.698" height="229.698" fill="white" transform="translate(229.699)"/>
</clipPath>
<clipPath id="clip2_723_17348">
<rect width="230.602" height="230.602" fill="white" transform="translate(459.398)"/>
</clipPath>
</defs>
</svg>
