<svg width="690" height="231" viewBox="0 0 690 231" fill="none" xmlns="http://www.w3.org/2000/svg">
<g clip-path="url(#clip0_715_16503)">
<path d="M689.999 229.698C689.999 102.841 587.158 0 460.301 0V229.698H689.999Z" fill="#8AA4AD"/>
<path d="M575.15 229.697C575.15 166.262 523.736 114.848 460.301 114.848V229.697H575.15Z" fill="#FC6600"/>
</g>
<g clip-path="url(#clip1_715_16503)">
<path d="M345.452 172.275C377.167 172.275 402.876 146.565 402.876 114.85C402.876 83.1356 377.167 57.4258 345.452 57.4258C313.737 57.4258 288.027 83.1356 288.027 114.85C288.027 146.565 313.737 172.275 345.452 172.275Z" fill="#C3B4FF"/>
<path d="M288.026 114.849C319.741 114.849 345.451 89.1393 345.451 57.4246C345.451 25.7098 319.741 0 288.026 0C256.311 0 230.602 25.7098 230.602 57.4246C230.602 89.1393 256.311 114.849 288.026 114.849Z" fill="#F64B4B"/>
<path d="M402.874 114.849C434.588 114.849 460.298 89.1393 460.298 57.4246C460.298 25.7098 434.588 0 402.874 0C371.159 0 345.449 25.7098 345.449 57.4246C345.449 89.1393 371.159 114.849 402.874 114.849Z" fill="#F64B4B"/>
<path d="M288.026 229.697C319.741 229.697 345.451 203.987 345.451 172.272C345.451 140.558 319.741 114.848 288.026 114.848C256.311 114.848 230.602 140.558 230.602 172.272C230.602 203.987 256.311 229.697 288.026 229.697Z" fill="#F64B4B"/>
<path d="M402.874 229.697C434.588 229.697 460.298 203.987 460.298 172.272C460.298 140.558 434.588 114.848 402.874 114.848C371.159 114.848 345.449 140.558 345.449 172.272C345.449 203.987 371.159 229.697 402.874 229.697Z" fill="#F64B4B"/>
</g>
<g clip-path="url(#clip2_715_16503)">
<path d="M0 230.603C63.6847 230.603 115.301 178.986 115.301 115.301C115.301 51.6165 63.6847 0 0 0V230.603Z" fill="#009FBA"/>
<path d="M230.602 0C166.917 0 115.301 51.6165 115.301 115.301C115.301 178.986 166.917 230.603 230.602 230.603V0Z" fill="#FF7EE1"/>
</g>
<defs>
<clipPath id="clip0_715_16503">
<rect width="229.698" height="229.698" fill="white" transform="translate(460.301)"/>
</clipPath>
<clipPath id="clip1_715_16503">
<rect width="229.698" height="229.698" fill="white" transform="translate(230.602)"/>
</clipPath>
<clipPath id="clip2_715_16503">
<rect width="230.603" height="230.603" fill="white"/>
</clipPath>
</defs>
</svg>
